<?xml version="1.0" standalone="no"?>
<!DOCTYPE svg PUBLIC "-//W3C//DTD SVG 20010904//EN"
 "http://www.w3.org/TR/2001/REC-SVG-20010904/DTD/svg10.dtd">
<svg version="1.0" xmlns="http://www.w3.org/2000/svg"
 width="692.000000pt" height="722.000000pt" viewBox="0 0 692.000000 722.000000"
 preserveAspectRatio="xMidYMid meet">

<g transform="translate(0.000000,722.000000) scale(0.100000,-0.100000)"
fill="#000000" stroke="none">
<path d="M2323 6415 c-422 -165 -779 -399 -1098 -719 -533 -535 -849 -1213
-916 -1967 -16 -186 -6 -533 21 -714 104 -693 403 -1292 891 -1785 431 -435
1002 -746 1589 -864 261 -53 346 -60 650 -60 303 0 388 7 650 60 619 124 1221
464 1659 937 449 485 719 1047 823 1717 19 126 22 184 22 440 0 320 -12 441
-70 697 -230 1029 -973 1886 -1962 2263 -62 24 -114 41 -117 39 -5 -6 -492
-1467 -497 -1493 -2 -14 11 -23 61 -42 383 -145 722 -479 881 -868 173 -423
152 -899 -57 -1308 -70 -138 -155 -256 -265 -371 l-89 -92 -25 40 c-39 63 -99
192 -132 285 -56 160 -74 274 -81 505 l-6 210 -795 0 -795 0 -6 -210 c-7 -231
-25 -345 -81 -505 -33 -93 -93 -222 -132 -285 l-25 -40 -88 91 c-312 322 -472
768 -434 1210 33 386 193 727 467 997 145 142 345 272 525 341 39 15 63 30 62
38 -11 53 -500 1498 -508 1497 -5 0 -60 -20 -122 -44z m7 -871 c66 -197 120
-364 120 -370 0 -7 -24 -27 -52 -45 -164 -100 -389 -308 -514 -474 -202 -269
-326 -566 -380 -906 -22 -142 -22 -438 1 -579 31 -196 104 -430 185 -591 87
-173 230 -370 371 -511 l98 -97 -52 -46 c-77 -70 -231 -169 -349 -224 -116
-55 -296 -113 -316 -102 -7 4 -45 45 -84 92 -332 399 -540 862 -619 1380 -26
173 -32 549 -10 714 64 495 240 932 540 1335 161 217 460 495 701 653 91 59
232 138 238 133 1 -2 57 -165 122 -362z m2647 210 c607 -401 1039 -1044 1177
-1751 42 -217 50 -306 50 -553 -1 -273 -20 -426 -84 -674 -106 -418 -342 -859
-617 -1153 l-30 -32 -74 21 c-209 58 -443 183 -587 313 l-50 45 102 103 c297
298 482 665 551 1097 23 141 23 437 1 579 -89 568 -399 1053 -873 1367 l-82
54 120 357 c65 197 121 364 124 371 6 17 114 -40 272 -144z m-1106 -2939 c103
-630 483 -1154 1053 -1455 50 -26 113 -56 139 -65 26 -10 46 -23 44 -29 -2 -6
-61 -50 -133 -98 -150 -101 -398 -228 -567 -289 l-117 -42 -48 33 c-249 175
-491 420 -679 685 -175 248 -316 557 -398 870 -46 172 -93 474 -77 490 3 3
177 4 386 3 l381 -3 16 -100z m-1012 -787 c78 -205 172 -398 291 -588 28 -46
49 -86 48 -91 -2 -5 -50 -58 -106 -119 -103 -110 -298 -280 -406 -354 l-57
-39 -117 42 c-168 61 -416 188 -566 289 -72 48 -131 92 -133 98 -2 6 18 19 44
29 72 27 176 81 274 141 250 155 467 367 626 615 31 49 58 87 60 86 1 -2 21
-51 42 -109z m744 -1152 l145 -145 -31 -7 c-42 -9 -472 -9 -514 0 l-31 7 141
143 c78 79 143 144 144 145 0 0 66 -64 146 -143z"/>
</g>
</svg>
